<svg xmlns="http://www.w3.org/2000/svg">
  <symbol id="dialog-text" viewBox="0 0 293 63">
    <rect y="12" width="3" height="3" fill="black"/>
    <rect y="15" width="3" height="3" fill="black"/>
    <rect y="18" width="3" height="3" fill="black"/>
    <rect y="21" width="3" height="3" fill="black"/>
    <rect y="24" width="3" height="3" fill="black"/>
    <rect y="27" width="3" height="3" fill="black"/>
    <rect y="30" width="3" height="3" fill="black"/>
    <rect y="33" width="3" height="3" fill="black"/>
    <rect y="36" width="3" height="3" fill="black"/>
    <rect y="39" width="3" height="3" fill="black"/>
    <rect y="42" width="3" height="3" fill="black"/>
    <rect y="45" width="3" height="3" fill="black"/>
    <rect y="48" width="3" height="3" fill="black"/>
    <rect x="33" y="12" width="3" height="3" transform="rotate(90 33 12)" fill="black"/>
    <rect x="30" y="12" width="3" height="3" transform="rotate(90 30 12)" fill="black"/>
    <rect x="27" y="12" width="3" height="3" transform="rotate(90 27 12)" fill="black"/>
    <rect x="24" y="12" width="3" height="3" transform="rotate(90 24 12)" fill="black"/>
    <rect x="21" y="12" width="3" height="3" transform="rotate(90 21 12)" fill="black"/>
    <rect x="18" y="12" width="3" height="3" transform="rotate(90 18 12)" fill="black"/>
    <rect x="15" y="12" width="3" height="3" transform="rotate(90 15 12)" fill="black"/>
    <rect x="12" y="12" width="3" height="3" transform="rotate(90 12 12)" fill="black"/>
    <rect x="9" y="12" width="3" height="3" transform="rotate(90 9 12)" fill="black"/>
    <rect x="6" y="12" width="3" height="3" transform="rotate(90 6 12)" fill="black"/>
    <rect x="36" y="15" width="3" height="3" transform="rotate(90 36 15)" fill="black"/>
    <rect x="9" y="18" width="3" height="3" transform="rotate(90 9 18)" fill="black"/>
    <rect x="9" y="15" width="3" height="3" transform="rotate(90 9 15)" fill="black"/>
    <rect x="9" y="21" width="3" height="3" transform="rotate(90 9 21)" fill="black"/>
    <rect x="30" y="18" width="3" height="3" transform="rotate(90 30 18)" fill="black"/>
    <rect x="30" y="15" width="3" height="3" transform="rotate(90 30 15)" fill="black"/>
    <rect x="30" y="21" width="3" height="3" transform="rotate(90 30 21)" fill="black"/>
    <rect x="24" y="18" width="3" height="3" transform="rotate(90 24 18)" fill="black"/>
    <rect x="24" y="15" width="3" height="3" transform="rotate(90 24 15)" fill="black"/>
    <rect x="24" y="21" width="3" height="3" transform="rotate(90 24 21)" fill="black"/>
    <rect x="30" y="24" width="3" height="3" transform="rotate(90 30 24)" fill="black"/>
    <rect x="27" y="24" width="3" height="3" transform="rotate(90 27 24)" fill="black"/>
    <rect x="24" y="24" width="3" height="3" transform="rotate(90 24 24)" fill="black"/>
    <rect x="21" y="24" width="3" height="3" transform="rotate(90 21 24)" fill="black"/>
    <rect x="18" y="24" width="3" height="3" transform="rotate(90 18 24)" fill="black"/>
    <rect x="15" y="24" width="3" height="3" transform="rotate(90 15 24)" fill="black"/>
    <rect x="12" y="24" width="3" height="3" transform="rotate(90 12 24)" fill="black"/>
    <rect x="9" y="24" width="3" height="3" transform="rotate(90 9 24)" fill="black"/>
    <rect x="33" y="33" width="3" height="3" transform="rotate(90 33 33)" fill="black"/>
    <rect x="30" y="33" width="3" height="3" transform="rotate(90 30 33)" fill="black"/>
    <rect x="27" y="33" width="3" height="3" transform="rotate(90 27 33)" fill="black"/>
    <rect x="24" y="33" width="3" height="3" transform="rotate(90 24 33)" fill="black"/>
    <rect x="21" y="33" width="3" height="3" transform="rotate(90 21 33)" fill="black"/>
    <rect x="18" y="33" width="3" height="3" transform="rotate(90 18 33)" fill="black"/>
    <rect x="15" y="33" width="3" height="3" transform="rotate(90 15 33)" fill="black"/>
    <rect x="12" y="33" width="3" height="3" transform="rotate(90 12 33)" fill="black"/>
    <rect x="9" y="33" width="3" height="3" transform="rotate(90 9 33)" fill="black"/>
    <rect x="33" y="36" width="3" height="3" transform="rotate(90 33 36)" fill="black"/>
    <rect x="9" y="36" width="3" height="3" transform="rotate(90 9 36)" fill="black"/>
    <rect x="33" y="39" width="3" height="3" transform="rotate(90 33 39)" fill="black"/>
    <rect x="9" y="39" width="3" height="3" transform="rotate(90 9 39)" fill="black"/>
    <rect x="33" y="42" width="3" height="3" transform="rotate(90 33 42)" fill="black"/>
    <rect x="9" y="42" width="3" height="3" transform="rotate(90 9 42)" fill="black"/>
    <rect x="9" y="45" width="3" height="3" transform="rotate(90 9 45)" fill="black"/>
    <rect x="33" y="45" width="3" height="3" transform="rotate(90 33 45)" fill="black"/>
    <rect x="36" y="48" width="3" height="3" transform="rotate(90 36 48)" fill="black"/>
    <rect x="33" y="48" width="3" height="3" transform="rotate(90 33 48)" fill="black"/>
    <rect x="30" y="48" width="3" height="3" transform="rotate(90 30 48)" fill="black"/>
    <rect x="27" y="48" width="3" height="3" transform="rotate(90 27 48)" fill="black"/>
    <rect x="24" y="48" width="3" height="3" transform="rotate(90 24 48)" fill="black"/>
    <rect x="21" y="48" width="3" height="3" transform="rotate(90 21 48)" fill="black"/>
    <rect x="18" y="48" width="3" height="3" transform="rotate(90 18 48)" fill="black"/>
    <rect x="15" y="48" width="3" height="3" transform="rotate(90 15 48)" fill="black"/>
    <rect x="12" y="48" width="3" height="3" transform="rotate(90 12 48)" fill="black"/>
    <rect x="9" y="48" width="3" height="3" transform="rotate(90 9 48)" fill="black"/>
    <rect x="6" y="48" width="3" height="3" transform="rotate(90 6 48)" fill="black"/>
    <rect x="39" y="51" width="3" height="3" transform="rotate(-180 39 51)" fill="black"/>
    <rect x="39" y="48" width="3" height="3" transform="rotate(-180 39 48)" fill="black"/>
    <rect x="39" y="45" width="3" height="3" transform="rotate(-180 39 45)" fill="black"/>
    <rect x="39" y="42" width="3" height="3" transform="rotate(-180 39 42)" fill="black"/>
    <rect x="39" y="39" width="3" height="3" transform="rotate(-180 39 39)" fill="black"/>
    <rect x="39" y="36" width="3" height="3" transform="rotate(-180 39 36)" fill="black"/>
    <rect x="39" y="33" width="3" height="3" transform="rotate(-180 39 33)" fill="black"/>
    <rect x="39" y="30" width="3" height="3" transform="rotate(-180 39 30)" fill="black"/>
    <rect x="39" y="27" width="3" height="3" transform="rotate(-180 39 27)" fill="black"/>
    <rect x="39" y="24" width="3" height="3" transform="rotate(-180 39 24)" fill="black"/>
    <rect x="39" y="21" width="3" height="3" transform="rotate(-180 39 21)" fill="black"/>
    <path d="M59 16.25V4H69.5V5.75H71.25V9.25H69.5V11H71.25V14.5H69.5V16.25H59ZM62.5 9.25H67.75V5.75H62.5V9.25ZM62.5 14.5H67.75V11H62.5V14.5ZM76.5 16.25V14.5H74.75V12.75H73V7.5H74.75V5.75H76.5V4H83.5V5.75H85.25V7.5H81.75V5.75H78.25V7.5H76.5V12.75H78.25V14.5H81.75V12.75H85.25V14.5H83.5V16.25H76.5ZM92.25 16.25V5.75H88.75V4H99.25V5.75H95.75V16.25H92.25ZM101 16.25V7.5H102.75V5.75H104.5V4H109.75V5.75H111.5V7.5H113.25V16.25H109.75V12.75H104.5V16.25H101ZM104.5 11H109.75V7.5H108V5.75H106.25V7.5H104.5V11ZM115 16.25V4H125.5V5.75H127.25V9.25H125.5V11H127.25V14.5H125.5V16.25H115ZM118.5 9.25H123.75V5.75H118.5V9.25ZM118.5 14.5H123.75V11H118.5V14.5ZM129 16.25V4H132.5V7.5H139.5V9.25H141.25V14.5H139.5V16.25H129ZM132.5 14.5H137.75V9.25H132.5V14.5ZM148.25 16.25V5.75H144.75V4H155.25V5.75H151.75V16.25H148.25ZM157 16.25V4H169.25V5.75H160.5V9.25H167.5V11H160.5V14.5H169.25V16.25H157ZM59 39V35.5H60.75V32H62.5V25H71.25V35.5H73V39H69.5V37.25H62.5V39H59ZM64.25 35.5H67.75V26.75H64.25V35.5ZM73 37.25V25H76.5V32H78.25V30.25H80V28.5H81.75V25H85.25V37.25H81.75V32H80V33.75H78.25V35.5H76.5V37.25H73ZM90.5 37.25V35.5H88.75V33.75H87V28.5H88.75V26.75H90.5V25H97.5V26.75H99.25V28.5H95.75V26.75H92.25V28.5H90.5V33.75H92.25V35.5H95.75V33.75H99.25V35.5H97.5V37.25H90.5ZM106.25 28.5H108V30.25H109.75V32H111.5V35.5H113.25V37.25H109.75V35.5H108V32H104.5V37.25H101V25H104.5V30.25H106.25V28.5ZM113.25 25V26.75H111.5V28.5H108V26.75H109.75V25H113.25ZM115 37.25V25H127.25V26.75H118.5V30.25H125.5V32H118.5V35.5H127.25V37.25H115ZM134.25 37.25V26.75H130.75V25H141.25V26.75H137.75V37.25H134.25ZM144.75 37.25V35.5H143V33.75H146.5V35.5H151.75V32H144.75V30.25H143V25H146.5V30.25H151.75V25H155.25V35.5H153.5V37.25H144.75ZM158.75 39V37.25H160.5V33.75H164V37.25H162.25V39H158.75ZM193.75 37.25V32H186.75V30.25H185V25H188.5V30.25H193.75V25H197.25V37.25H193.75ZM204.25 37.25V26.75H200.75V25H211.25V26.75H207.75V37.25H204.25ZM214.75 37.25V35.5H213V26.75H214.75V25H223.5V26.75H225.25V35.5H223.5V37.25H214.75ZM216.5 35.5H221.75V26.75H216.5V35.5ZM227 37.25V25H237.5V26.75H230.5V30.25H237.5V32H239.25V35.5H237.5V37.25H227ZM230.5 35.5H235.75V32H230.5V35.5ZM241 37.25V25H244.5V28.5H248V37.25H241ZM249.75 37.25V25H253.25V37.25H249.75ZM244.5 35.5H246.25V30.25H244.5V35.5ZM59 58.25V46H71.25V58.25H67.75V47.75H62.5V58.25H59ZM73 58.25V46H83.5V47.75H85.25V53H83.5V54.75H76.5V58.25H73ZM76.5 53H81.75V47.75H76.5V53ZM88.75 58.25V56.5H87V47.75H88.75V46H97.5V47.75H99.25V56.5H97.5V58.25H88.75ZM90.5 56.5H95.75V47.75H90.5V56.5ZM101 60V56.5H102.75V53H104.5V46H113.25V56.5H115V60H111.5V58.25H104.5V60H101ZM106.25 56.5H109.75V47.75H106.25V56.5ZM116.75 58.25V56.5H115V47.75H116.75V46H125.5V47.75H127.25V56.5H125.5V58.25H116.75ZM118.5 56.5H123.75V47.75H118.5V56.5ZM129 58.25V54.75H130.75V53H132.5V46H141.25V58.25H137.75V47.75H134.25V56.5H132.5V58.25H129ZM146.5 46V51.25H144.75V49.5H143V46H146.5ZM150 51.25H151.75V53H150V58.25H148.25V53H146.5V51.25H148.25V46H150V51.25ZM155.25 46V49.5H153.5V51.25H151.75V46H155.25ZM144.75 53H146.5V58.25H143V54.75H144.75V53ZM151.75 58.25V53H153.5V54.75H155.25V58.25H151.75ZM157 58.25V46H160.5V53H162.25V51.25H164V49.5H165.75V46H169.25V58.25H165.75V53H164V54.75H162.25V56.5H160.5V58.25H157ZM176.25 58.25V47.75H172.75V46H183.25V47.75H179.75V58.25H176.25ZM185 58.25V46H188.5V49.5H195.5V51.25H197.25V56.5H195.5V58.25H185ZM188.5 56.5H193.75V51.25H188.5V56.5Z" fill="black"/>
  </symbol>
</svg>