<svg id="floppy-mobile-icon" width="306" height="84" viewBox="0 0 306 84" fill="none" xmlns="http://www.w3.org/2000/svg">
  <rect x="1" y="1" width="304" height="82" fill="white"/>
  <rect x="1" y="1" width="304" height="82" stroke="black" stroke-width="2"/>
  <rect x="139" y="17" width="2.15385" height="2.15385" fill="black"/>
  <rect x="139" y="19.1543" width="2.15385" height="2.15385" fill="black"/>
  <rect x="139" y="21.3076" width="2.15385" height="2.15385" fill="black"/>
  <rect x="139" y="23.4619" width="2.15385" height="2.15385" fill="black"/>
  <rect x="139" y="25.6152" width="2.15385" height="2.15385" fill="black"/>
  <rect x="139" y="27.7695" width="2.15385" height="2.15385" fill="black"/>
  <rect x="139" y="29.9229" width="2.15385" height="2.15385" fill="black"/>
  <rect x="139" y="32.0771" width="2.15385" height="2.15385" fill="black"/>
  <rect x="139" y="34.2305" width="2.15385" height="2.15385" fill="black"/>
  <rect x="139" y="36.3848" width="2.15385" height="2.15385" fill="black"/>
  <rect x="139" y="38.5381" width="2.15385" height="2.15385" fill="black"/>
  <rect x="139" y="40.6924" width="2.15385" height="2.15385" fill="black"/>
  <rect x="139" y="42.8457" width="2.15385" height="2.15385" fill="black"/>
  <rect x="162.693" y="17" width="2.15385" height="2.15385" transform="rotate(90 162.693 17)" fill="black"/>
  <rect x="160.539" y="17" width="2.15385" height="2.15385" transform="rotate(90 160.539 17)" fill="black"/>
  <rect x="158.384" y="17" width="2.15385" height="2.15385" transform="rotate(90 158.384 17)" fill="black"/>
  <rect x="156.23" y="17" width="2.15385" height="2.15385" transform="rotate(90 156.23 17)" fill="black"/>
  <rect x="154.077" y="17" width="2.15385" height="2.15385" transform="rotate(90 154.077 17)" fill="black"/>
  <rect x="151.923" y="17" width="2.15385" height="2.15385" transform="rotate(90 151.923 17)" fill="black"/>
  <rect x="149.77" y="17" width="2.15385" height="2.15385" transform="rotate(90 149.77 17)" fill="black"/>
  <rect x="147.616" y="17" width="2.15385" height="2.15385" transform="rotate(90 147.616 17)" fill="black"/>
  <rect x="145.461" y="17" width="2.15385" height="2.15385" transform="rotate(90 145.461 17)" fill="black"/>
  <rect x="143.307" y="17" width="2.15385" height="2.15385" transform="rotate(90 143.307 17)" fill="black"/>
  <rect x="164.846" y="19.1543" width="2.15385" height="2.15385" transform="rotate(90 164.846 19.1543)" fill="black"/>
  <rect x="145.461" y="21.3076" width="2.15385" height="2.15385" transform="rotate(90 145.461 21.3076)" fill="black"/>
  <rect x="145.461" y="19.1543" width="2.15385" height="2.15385" transform="rotate(90 145.461 19.1543)" fill="black"/>
  <rect x="145.461" y="23.4619" width="2.15385" height="2.15385" transform="rotate(90 145.461 23.4619)" fill="black"/>
  <rect x="160.539" y="21.3076" width="2.15385" height="2.15385" transform="rotate(90 160.539 21.3076)" fill="black"/>
  <rect x="160.539" y="19.1543" width="2.15385" height="2.15385" transform="rotate(90 160.539 19.1543)" fill="black"/>
  <rect x="160.539" y="23.4619" width="2.15385" height="2.15385" transform="rotate(90 160.539 23.4619)" fill="black"/>
  <rect x="156.23" y="21.3076" width="2.15385" height="2.15385" transform="rotate(90 156.23 21.3076)" fill="black"/>
  <rect x="156.23" y="19.1543" width="2.15385" height="2.15385" transform="rotate(90 156.23 19.1543)" fill="black"/>
  <rect x="156.23" y="23.4619" width="2.15385" height="2.15385" transform="rotate(90 156.23 23.4619)" fill="black"/>
  <rect x="160.539" y="25.6152" width="2.15385" height="2.15385" transform="rotate(90 160.539 25.6152)" fill="black"/>
  <rect x="158.384" y="25.6152" width="2.15385" height="2.15385" transform="rotate(90 158.384 25.6152)" fill="black"/>
  <rect x="156.23" y="25.6152" width="2.15385" height="2.15385" transform="rotate(90 156.23 25.6152)" fill="black"/>
  <rect x="154.077" y="25.6152" width="2.15385" height="2.15385" transform="rotate(90 154.077 25.6152)" fill="black"/>
  <rect x="151.923" y="25.6152" width="2.15385" height="2.15385" transform="rotate(90 151.923 25.6152)" fill="black"/>
  <rect x="149.77" y="25.6152" width="2.15385" height="2.15385" transform="rotate(90 149.77 25.6152)" fill="black"/>
  <rect x="147.616" y="25.6152" width="2.15385" height="2.15385" transform="rotate(90 147.616 25.6152)" fill="black"/>
  <rect x="145.461" y="25.6152" width="2.15385" height="2.15385" transform="rotate(90 145.461 25.6152)" fill="black"/>
  <rect x="162.693" y="32.0771" width="2.15385" height="2.15385" transform="rotate(90 162.693 32.0771)" fill="black"/>
  <rect x="160.539" y="32.0771" width="2.15385" height="2.15385" transform="rotate(90 160.539 32.0771)" fill="black"/>
  <rect x="158.384" y="32.0771" width="2.15385" height="2.15385" transform="rotate(90 158.384 32.0771)" fill="black"/>
  <rect x="156.23" y="32.0771" width="2.15385" height="2.15385" transform="rotate(90 156.23 32.0771)" fill="black"/>
  <rect x="154.077" y="32.0771" width="2.15385" height="2.15385" transform="rotate(90 154.077 32.0771)" fill="black"/>
  <rect x="151.923" y="32.0771" width="2.15385" height="2.15385" transform="rotate(90 151.923 32.0771)" fill="black"/>
  <rect x="149.77" y="32.0771" width="2.15385" height="2.15385" transform="rotate(90 149.77 32.0771)" fill="black"/>
  <rect x="147.616" y="32.0771" width="2.15385" height="2.15385" transform="rotate(90 147.616 32.0771)" fill="black"/>
  <rect x="145.461" y="32.0771" width="2.15385" height="2.15385" transform="rotate(90 145.461 32.0771)" fill="black"/>
  <rect x="162.693" y="34.2305" width="2.15385" height="2.15385" transform="rotate(90 162.693 34.2305)" fill="black"/>
  <rect x="145.461" y="34.2305" width="2.15385" height="2.15385" transform="rotate(90 145.461 34.2305)" fill="black"/>
  <rect x="162.693" y="36.3848" width="2.15385" height="2.15385" transform="rotate(90 162.693 36.3848)" fill="black"/>
  <rect x="145.461" y="36.3848" width="2.15385" height="2.15385" transform="rotate(90 145.461 36.3848)" fill="black"/>
  <rect x="162.693" y="38.5381" width="2.15385" height="2.15385" transform="rotate(90 162.693 38.5381)" fill="black"/>
  <rect x="145.461" y="38.5381" width="2.15385" height="2.15385" transform="rotate(90 145.461 38.5381)" fill="black"/>
  <rect x="145.461" y="40.6924" width="2.15385" height="2.15385" transform="rotate(90 145.461 40.6924)" fill="black"/>
  <rect x="162.693" y="40.6924" width="2.15385" height="2.15385" transform="rotate(90 162.693 40.6924)" fill="black"/>
  <rect x="164.846" y="42.8457" width="2.15385" height="2.15385" transform="rotate(90 164.846 42.8457)" fill="black"/>
  <rect x="162.693" y="42.8457" width="2.15385" height="2.15385" transform="rotate(90 162.693 42.8457)" fill="black"/>
  <rect x="160.539" y="42.8457" width="2.15385" height="2.15385" transform="rotate(90 160.539 42.8457)" fill="black"/>
  <rect x="158.384" y="42.8457" width="2.15385" height="2.15385" transform="rotate(90 158.384 42.8457)" fill="black"/>
  <rect x="156.23" y="42.8457" width="2.15385" height="2.15385" transform="rotate(90 156.23 42.8457)" fill="black"/>
  <rect x="154.077" y="42.8457" width="2.15385" height="2.15385" transform="rotate(90 154.077 42.8457)" fill="black"/>
  <rect x="151.923" y="42.8457" width="2.15385" height="2.15385" transform="rotate(90 151.923 42.8457)" fill="black"/>
  <rect x="149.77" y="42.8457" width="2.15385" height="2.15385" transform="rotate(90 149.77 42.8457)" fill="black"/>
  <rect x="147.616" y="42.8457" width="2.15385" height="2.15385" transform="rotate(90 147.616 42.8457)" fill="black"/>
  <rect x="145.461" y="42.8457" width="2.15385" height="2.15385" transform="rotate(90 145.461 42.8457)" fill="black"/>
  <rect x="143.307" y="42.8457" width="2.15385" height="2.15385" transform="rotate(90 143.307 42.8457)" fill="black"/>
  <rect x="167" y="45" width="2.15385" height="2.15385" transform="rotate(-180 167 45)" fill="black"/>
  <rect x="167" y="42.8457" width="2.15385" height="2.15385" transform="rotate(-180 167 42.8457)" fill="black"/>
  <rect x="167" y="40.6924" width="2.15385" height="2.15385" transform="rotate(-180 167 40.6924)" fill="black"/>
  <rect x="167" y="38.5381" width="2.15385" height="2.15385" transform="rotate(-180 167 38.5381)" fill="black"/>
  <rect x="167" y="36.3848" width="2.15385" height="2.15385" transform="rotate(-180 167 36.3848)" fill="black"/>
  <rect x="167" y="34.2305" width="2.15385" height="2.15385" transform="rotate(-180 167 34.2305)" fill="black"/>
  <rect x="167" y="32.0771" width="2.15385" height="2.15385" transform="rotate(-180 167 32.0771)" fill="black"/>
  <rect x="167" y="29.9229" width="2.15385" height="2.15385" transform="rotate(-180 167 29.9229)" fill="black"/>
  <rect x="167" y="27.7695" width="2.15385" height="2.15385" transform="rotate(-180 167 27.7695)" fill="black"/>
  <rect x="167" y="25.6152" width="2.15385" height="2.15385" transform="rotate(-180 167 25.6152)" fill="black"/>
  <rect x="167" y="23.4619" width="2.15385" height="2.15385" transform="rotate(-180 167 23.4619)" fill="black"/>
  <path d="M23.5 65.25V63.5H21.75V61.75H20V56.5H21.75V54.75H23.5V53H30.5V54.75H32.25V56.5H28.75V54.75H25.25V56.5H23.5V61.75H25.25V63.5H28.75V61.75H32.25V63.5H30.5V65.25H23.5ZM35.75 65.25V63.5H34V58.25H35.75V56.5H44.5V58.25H46.25V63.5H44.5V65.25H35.75ZM37.5 63.5H42.75V58.25H37.5V63.5ZM48 65.25V63.5H49.75V61.75H51.5V60H49.75V58.25H48V56.5H51.5V58.25H53.25V60H55V58.25H56.75V56.5H60.25V58.25H58.5V60H56.75V61.75H58.5V63.5H60.25V65.25H56.75V63.5H55V61.75H53.25V63.5H51.5V65.25H48ZM74.25 58.25V63.5H72.5V65.25H65.5V67H62V56.5H65.5V58.25H67.25V60H65.5V63.5H70.75V58.25H67.25V56.5H72.5V58.25H74.25ZM77.75 65.25V63.5H76V61.75H77.75V60H84.75V58.25H77.75V56.5H86.5V58.25H88.25V65.25H77.75ZM79.5 63.5H84.75V61.75H79.5V63.5ZM90 65.25V56.5H93.5V60H98.75V56.5H102.25V65.25H98.75V61.75H93.5V65.25H90ZM107.5 61.75H109.25V63.5H107.5V65.25H104V56.5H107.5V61.75ZM116.25 56.5V65.25H112.75V60H111V58.25H112.75V56.5H116.25ZM109.25 60H111V61.75H109.25V60ZM123.25 65.25V58.25H119.75V56.5H130.25V58.25H126.75V65.25H123.25ZM132 65.25V56.5H135.5V60H142.5V61.75H144.25V63.5H142.5V65.25H132ZM135.5 63.5H140.75V61.75H135.5V63.5ZM160 65.25V56.5H163.5V60H168.75V56.5H172.25V65.25H168.75V61.75H163.5V65.25H160ZM175.75 65.25V63.5H174V61.75H175.75V60H182.75V58.25H175.75V56.5H184.5V58.25H186.25V65.25H175.75ZM177.5 63.5H182.75V61.75H177.5V63.5ZM202 65.25V56.5H214.25V65.25H210.75V58.25H205.5V65.25H202ZM217.75 65.25V63.5H216V61.75H217.75V60H224.75V58.25H217.75V56.5H226.5V58.25H228.25V65.25H217.75ZM219.5 63.5H224.75V61.75H219.5V63.5ZM235.25 58.25V60H233.5V65.25H230V56.5H233.5V58.25H235.25ZM242.25 56.5V65.25H238.75V60H237V58.25H238.75V56.5H242.25ZM235.25 60H237V63.5H235.25V60ZM244 65.25V61.75H245.75V60H244V58.25H245.75V56.5H256.25V65.25H252.75V61.75H247.5V65.25H244ZM247.5 60H252.75V58.25H247.5V60ZM263.25 65.25V58.25H259.75V56.5H270.25V58.25H266.75V65.25H263.25ZM272 65.25V56.5H275.5V60H282.5V61.75H284.25V63.5H282.5V65.25H272ZM275.5 63.5H280.75V61.75H275.5V63.5Z" fill="black"/>
</svg>