<svg xmlns="http://www.w3.org/2000/svg">
  <symbol id="floppy-icon" viewBox="0 0 23 23">
    <path d="M0 0h1.615v1.615H0V0zm0 1.615h1.615v1.615H0V1.615zm0 1.616h1.615v1.615H0V3.23zm0 1.615h1.615v1.615H0V4.846zm0 1.616h1.615v1.615H0V6.462zm0 1.615h1.615v1.615H0V8.077zm0 1.615h1.615v1.615H0V9.692zm0 1.616h1.615v1.615H0V11.308zm0 1.615h1.615v1.615H0V12.923zm0 1.615h1.615v1.615H0V14.538zm0 1.616h1.615v1.615H0V16.154zm0 1.615h1.615v1.615H0V17.77zm0 1.615h1.615v1.615H0V19.385zM17.77 0h1.615v1.615H17.77V0zm-1.616 0h1.615v1.615h-1.615V0zm-1.615 0h1.615v1.615h-1.615V0zm-1.616 0h1.615v1.615h-1.615V0zm-1.615 0h1.615v1.615h-1.615V0zm-1.616 0h1.615v1.615h-1.615V0zm-1.615 0h1.615v1.615h-1.615V0zm-1.616 0h1.615v1.615h-1.615V0zm-1.615 0h1.615v1.615h-1.615V0zm-1.615 0h1.615v1.615h-1.615V0zm-1.616 0h1.615v1.615h-1.615V0zM19.385 1.615h1.615v1.615h-1.615V1.615zM4.846 3.23h1.615v1.615H4.846V3.23zm0-1.615h1.615v1.615H4.846V1.615zm0 1.616h1.615v1.615H4.846V4.846zM16.154 3.23h1.615v1.615h-1.615V3.23zm0-1.615h1.615v1.615h-1.615V1.615zm0 1.616h1.615v1.615h-1.615V4.846zM12.923 3.23h1.615v1.615h-1.615V3.23zm0-1.615h1.615v1.615h-1.615V1.615zm0 1.616h1.615v1.615h-1.615V4.846zM16.154 6.462h1.615v1.615h-1.615V6.462zm-1.616 0h1.615v1.615h-1.615V6.462zm-1.615 0h1.615v1.615h-1.615V6.462zm-1.615 0h1.615v1.615h-1.615V6.462zm-1.616 0h1.615v1.615h-1.615V6.462zm-1.615 0h1.615v1.615h-1.615V6.462zm-1.616 0h1.615v1.615h-1.615V6.462zm-1.615 0h1.615v1.615h-1.615V6.462zM17.77 11.308h1.615v1.615H17.77v-1.615zm-1.616 0h1.615v1.615h-1.615v-1.615zm-1.615 0h1.615v1.615h-1.615v-1.615zm-1.616 0h1.615v1.615h-1.615v-1.615zm-1.615 0h1.615v1.615h-1.615v-1.615zm-1.616 0h1.615v1.615h-1.615v-1.615zm-1.615 0h1.615v1.615h-1.615v-1.615zm-1.616 0h1.615v1.615h-1.615v-1.615zm-1.615 0h1.615v1.615h-1.615v-1.615zM17.77 12.923h1.615v1.615H17.77v-1.615zM4.846 12.923h1.615v1.615H4.846v-1.615zM17.77 14.538h1.615v1.615H17.77v-1.615zM4.846 14.538h1.615v1.615H4.846v-1.615zM17.77 16.154h1.615v1.615H17.77v-1.615zM4.846 16.154h1.615v1.615H4.846v-1.615zM4.846 17.77h1.615v1.615H4.846V17.77zM17.77 17.77h1.615v1.615H17.77V17.77zM19.385 19.385h1.615v1.615h-1.615v-1.615zm-1.616 0h1.615v1.615h-1.615v-1.615zm-1.615 0h1.615v1.615h-1.615v-1.615zm-1.615 0h1.615v1.615h-1.615v-1.615zm-1.616 0h1.615v1.615h-1.615v-1.615zm-1.615 0h1.615v1.615h-1.615v-1.615zm-1.616 0h1.615v1.615h-1.615v-1.615zm-1.615 0h1.615v1.615h-1.615v-1.615zm-1.616 0h1.615v1.615h-1.615v-1.615zm-1.615 0h1.615v1.615h-1.615v-1.615zm-1.615 0h1.615v1.615h-1.615v-1.615zM21 21h1.615v1.615H21V21zm0-1.615h1.615v1.615H21v-1.615zm0-1.615h1.615v1.615H21v-1.615zm0-1.616h1.615v1.615H21v-1.615zm0-1.615h1.615v1.615H21v-1.615zm0-1.615h1.615v1.615H21v-1.615zm0-1.616h1.615v1.615H21v-1.615zm0-1.615h1.615v1.615H21V9.692zm0-1.615h1.615v1.615H21V8.077zm0-1.616h1.615v1.615H21V6.462zm0-1.615h1.615v1.615H21V4.846z" fill="currentColor"/>
  </symbol>
</svg>