<svg width="335" height="55" viewBox="0 0 335 55" fill="none" xmlns="http://www.w3.org/2000/svg">
            <rect x="1" y="1" width="333" height="53" fill="white"/>
            <rect x="1" y="1" width="333" height="53" stroke="black" stroke-width="2"/>
            <rect x="20" y="17" width="1.61538" height="1.61538" fill="black"/>
            <rect x="20" y="18.6152" width="1.61538" height="1.61538" fill="black"/>
            <rect x="20" y="20.2305" width="1.61538" height="1.61538" fill="black"/>
            <rect x="20" y="21.8457" width="1.61538" height="1.61538" fill="black"/>
            <rect x="20" y="23.4619" width="1.61538" height="1.61538" fill="black"/>
            <rect x="20" y="25.0771" width="1.61538" height="1.61538" fill="black"/>
            <rect x="20" y="26.6924" width="1.61538" height="1.61538" fill="black"/>
            <rect x="20" y="28.3076" width="1.61538" height="1.61538" fill="black"/>
            <rect x="20" y="29.9229" width="1.61538" height="1.61538" fill="black"/>
            <rect x="20" y="31.5381" width="1.61538" height="1.61538" fill="black"/>
            <rect x="20" y="33.1543" width="1.61538" height="1.61538" fill="black"/>
            <rect x="20" y="34.7695" width="1.61538" height="1.61538" fill="black"/>
            <rect x="20" y="36.3848" width="1.61538" height="1.61538" fill="black"/>
            <rect x="37.7693" y="17" width="1.61538" height="1.61538" transform="rotate(90 37.7693 17)" fill="black"/>
            <rect x="36.1538" y="17" width="1.61538" height="1.61538" transform="rotate(90 36.1538 17)" fill="black"/>
            <rect x="34.5385" y="17" width="1.61538" height="1.61538" transform="rotate(90 34.5385 17)" fill="black"/>
            <rect x="32.9231" y="17" width="1.61538" height="1.61538" transform="rotate(90 32.9231 17)" fill="black"/>
            <rect x="31.3077" y="17" width="1.61538" height="1.61538" transform="rotate(90 31.3077 17)" fill="black"/>
            <rect x="29.6923" y="17" width="1.61538" height="1.61538" transform="rotate(90 29.6923 17)" fill="black"/>
            <rect x="28.0769" y="17" width="1.61538" height="1.61538" transform="rotate(90 28.0769 17)" fill="black"/>
            <rect x="26.4615" y="17" width="1.61538" height="1.61538" transform="rotate(90 26.4615 17)" fill="black"/>
            <rect x="24.8462" y="17" width="1.61538" height="1.61538" transform="rotate(90 24.8462 17)" fill="black"/>
            <rect x="23.2307" y="17" width="1.61538" height="1.61538" transform="rotate(90 23.2307 17)" fill="black"/>
            <rect x="39.3846" y="18.6152" width="1.61538" height="1.61538" transform="rotate(90 39.3846 18.6152)" fill="black"/>
            <rect x="24.8462" y="20.2305" width="1.61538" height="1.61538" transform="rotate(90 24.8462 20.2305)" fill="black"/>
            <rect x="24.8462" y="18.6152" width="1.61538" height="1.61538" transform="rotate(90 24.8462 18.6152)" fill="black"/>
            <rect x="24.8462" y="21.8457" width="1.61538" height="1.61538" transform="rotate(90 24.8462 21.8457)" fill="black"/>
            <rect x="36.1538" y="20.2305" width="1.61538" height="1.61538" transform="rotate(90 36.1538 20.2305)" fill="black"/>
            <rect x="36.1538" y="18.6152" width="1.61538" height="1.61538" transform="rotate(90 36.1538 18.6152)" fill="black"/>
            <rect x="36.1538" y="21.8457" width="1.61538" height="1.61538" transform="rotate(90 36.1538 21.8457)" fill="black"/>
            <rect x="32.9231" y="20.2305" width="1.61538" height="1.61538" transform="rotate(90 32.9231 20.2305)" fill="black"/>
            <rect x="32.9231" y="18.6152" width="1.61538" height="1.61538" transform="rotate(90 32.9231 18.6152)" fill="black"/>
            <rect x="32.9231" y="21.8457" width="1.61538" height="1.61538" transform="rotate(90 32.9231 21.8457)" fill="black"/>
            <rect x="36.1538" y="23.4619" width="1.61538" height="1.61538" transform="rotate(90 36.1538 23.4619)" fill="black"/>
            <rect x="34.5385" y="23.4619" width="1.61538" height="1.61538" transform="rotate(90 34.5385 23.4619)" fill="black"/>
            <rect x="32.9231" y="23.4619" width="1.61538" height="1.61538" transform="rotate(90 32.9231 23.4619)" fill="black"/>
            <rect x="31.3077" y="23.4619" width="1.61538" height="1.61538" transform="rotate(90 31.3077 23.4619)" fill="black"/>
            <rect x="29.6923" y="23.4619" width="1.61538" height="1.61538" transform="rotate(90 29.6923 23.4619)" fill="black"/>
            <rect x="28.0769" y="23.4619" width="1.61538" height="1.61538" transform="rotate(90 28.0769 23.4619)" fill="black"/>
            <rect x="26.4615" y="23.4619" width="1.61538" height="1.61538" transform="rotate(90 26.4615 23.4619)" fill="black"/>
            <rect x="24.8462" y="23.4619" width="1.61538" height="1.61538" transform="rotate(90 24.8462 23.4619)" fill="black"/>
            <rect x="37.7693" y="28.3076" width="1.61538" height="1.61538" transform="rotate(90 37.7693 28.3076)" fill="black"/>
            <rect x="36.1538" y="28.3076" width="1.61538" height="1.61538" transform="rotate(90 36.1538 28.3076)" fill="black"/>
            <rect x="34.5385" y="28.3076" width="1.61538" height="1.61538" transform="rotate(90 34.5385 28.3076)" fill="black"/>
            <rect x="32.9231" y="28.3076" width="1.61538" height="1.61538" transform="rotate(90 32.9231 28.3076)" fill="black"/>
            <rect x="31.3077" y="28.3076" width="1.61538" height="1.61538" transform="rotate(90 31.3077 28.3076)" fill="black"/>
            <rect x="29.6923" y="28.3076" width="1.61538" height="1.61538" transform="rotate(90 29.6923 28.3076)" fill="black"/>
            <rect x="28.0769" y="28.3076" width="1.61538" height="1.61538" transform="rotate(90 28.0769 28.3076)" fill="black"/>
            <rect x="26.4615" y="28.3076" width="1.61538" height="1.61538" transform="rotate(90 26.4615 28.3076)" fill="black"/>
            <rect x="24.8462" y="28.3076" width="1.61538" height="1.61538" transform="rotate(90 24.8462 28.3076)" fill="black"/>
            <rect x="37.7693" y="29.9229" width="1.61538" height="1.61538" transform="rotate(90 37.7693 29.9229)" fill="black"/>
            <rect x="24.8462" y="29.9229" width="1.61538" height="1.61538" transform="rotate(90 24.8462 29.9229)" fill="black"/>
            <rect x="37.7693" y="31.5381" width="1.61538" height="1.61538" transform="rotate(90 37.7693 31.5381)" fill="black"/>
            <rect x="24.8462" y="31.5381" width="1.61538" height="1.61538" transform="rotate(90 24.8462 31.5381)" fill="black"/>
            <rect x="37.7693" y="33.1543" width="1.61538" height="1.61538" transform="rotate(90 37.7693 33.1543)" fill="black"/>
            <rect x="24.8462" y="33.1543" width="1.61538" height="1.61538" transform="rotate(90 24.8462 33.1543)" fill="black"/>
            <rect x="24.8462" y="34.7695" width="1.61538" height="1.61538" transform="rotate(90 24.8462 34.7695)" fill="black"/>
            <rect x="37.7693" y="34.7695" width="1.61538" height="1.61538" transform="rotate(90 37.7693 34.7695)" fill="black"/>
            <rect x="39.3846" y="36.3848" width="1.61538" height="1.61538" transform="rotate(90 39.3846 36.3848)" fill="black"/>
            <rect x="37.7693" y="36.3848" width="1.61538" height="1.61538" transform="rotate(90 37.7693 36.3848)" fill="black"/>
            <rect x="36.1538" y="36.3848" width="1.61538" height="1.61538" transform="rotate(90 36.1538 36.3848)" fill="black"/>
            <rect x="34.5385" y="36.3848" width="1.61538" height="1.61538" transform="rotate(90 34.5385 36.3848)" fill="black"/>
            <rect x="32.9231" y="36.3848" width="1.61538" height="1.61538" transform="rotate(90 32.9231 36.3848)" fill="black"/>
            <rect x="31.3077" y="36.3848" width="1.61538" height="1.61538" transform="rotate(90 31.3077 36.3848)" fill="black"/>
            <rect x="29.6923" y="36.3848" width="1.61538" height="1.61538" transform="rotate(90 29.6923 36.3848)" fill="black"/>
            <rect x="28.0769" y="36.3848" width="1.61538" height="1.61538" transform="rotate(90 28.0769 36.3848)" fill="black"/>
            <rect x="26.4615" y="36.3848" width="1.61538" height="1.61538" transform="rotate(90 26.4615 36.3848)" fill="black"/>
            <rect x="24.8462" y="36.3848" width="1.61538" height="1.61538" transform="rotate(90 24.8462 36.3848)" fill="black"/>
            <rect x="23.2307" y="36.3848" width="1.61538" height="1.61538" transform="rotate(90 23.2307 36.3848)" fill="black"/>
            <rect x="41" y="38" width="1.61538" height="1.61538" transform="rotate(-180 41 38)" fill="black"/>
            <rect x="41" y="36.3848" width="1.61538" height="1.61538" transform="rotate(-180 41 36.3848)" fill="black"/>
            <rect x="41" y="34.7695" width="1.61538" height="1.61538" transform="rotate(-180 41 34.7695)" fill="black"/>
            <rect x="41" y="33.1543" width="1.61538" height="1.61538" transform="rotate(-180 41 33.1543)" fill="black"/>
            <rect x="41" y="31.5381" width="1.61538" height="1.61538" transform="rotate(-180 41 31.5381)" fill="black"/>
            <rect x="41" y="29.9229" width="1.61538" height="1.61538" transform="rotate(-180 41 29.9229)" fill="black"/>
            <rect x="41" y="28.3076" width="1.61538" height="1.61538" transform="rotate(-180 41 28.3076)" fill="black"/>
            <rect x="41" y="26.6924" width="1.61538" height="1.61538" transform="rotate(-180 41 26.6924)" fill="black"/>
            <rect x="41" y="25.0771" width="1.61538" height="1.61538" transform="rotate(-180 41 25.0771)" fill="black"/>
            <rect x="41" y="23.4619" width="1.61538" height="1.61538" transform="rotate(-180 41 23.4619)" fill="black"/>
            <rect x="41" y="21.8457" width="1.61538" height="1.61538" transform="rotate(-180 41 21.8457)" fill="black"/>
            <path d="M52.5 32.75V31H50.75V29.25H49V24H50.75V22.25H52.5V20.5H59.5V22.25H61.25V24H57.75V22.25H54.25V24H52.5V29.25H54.25V31H57.75V29.25H61.25V31H59.5V32.75H52.5ZM64.75 32.75V31H63V25.75H64.75V24H73.5V25.75H75.25V31H73.5V32.75H64.75ZM66.5 31H71.75V25.75H66.5V31ZM77 32.75V31H78.75V29.25H80.5V27.5H78.75V25.75H77V24H80.5V25.75H82.25V27.5H84V25.75H85.75V24H89.25V25.75H87.5V27.5H85.75V29.25H87.5V31H89.25V32.75H85.75V31H84V29.25H82.25V31H80.5V32.75H77ZM103.25 25.75V31H101.5V32.75H94.5V34.5H91V24H94.5V25.75H96.25V27.5H94.5V31H99.75V25.75H96.25V24H101.5V25.75H103.25ZM106.75 32.75V31H105V29.25H106.75V27.5H113.75V25.75H106.75V24H115.5V25.75H117.25V32.75H106.75ZM108.5 31H113.75V29.25H108.5V31ZM119 32.75V24H122.5V27.5H127.75V24H131.25V32.75H127.75V29.25H122.5V32.75H119ZM136.5 29.25H138.25V31H136.5V32.75H133V24H136.5V29.25ZM145.25 24V32.75H141.75V27.5H140V25.75H141.75V24H145.25ZM138.25 27.5H140V29.25H138.25V27.5ZM152.25 32.75V25.75H148.75V24H159.25V25.75H155.75V32.75H152.25ZM161 32.75V24H164.5V27.5H171.5V29.25H173.25V31H171.5V32.75H161ZM164.5 31H169.75V29.25H164.5V31ZM189 32.75V24H192.5V27.5H197.75V24H201.25V32.75H197.75V29.25H192.5V32.75H189ZM204.75 32.75V31H203V29.25H204.75V27.5H211.75V25.75H204.75V24H213.5V25.75H215.25V32.75H204.75ZM206.5 31H211.75V29.25H206.5V31ZM231 32.75V24H243.25V32.75H239.75V25.75H234.5V32.75H231ZM246.75 32.75V31H245V29.25H246.75V27.5H253.75V25.75H246.75V24H255.5V25.75H257.25V32.75H246.75ZM248.5 31H253.75V29.25H248.5V31ZM264.25 25.75V27.5H262.5V32.75H259V24H262.5V25.75H264.25ZM271.25 24V32.75H267.75V27.5H266V25.75H267.75V24H271.25ZM264.25 27.5H266V31H264.25V27.5ZM273 32.75V29.25H274.75V27.5H273V25.75H274.75V24H285.25V32.75H281.75V29.25H276.5V32.75H273ZM276.5 27.5H281.75V25.75H276.5V27.5ZM292.25 32.75V25.75H288.75V24H299.25V25.75H295.75V32.75H292.25ZM301 32.75V24H304.5V27.5H311.5V29.25H313.25V31H311.5V32.75H301ZM304.5 31H309.75V29.25H304.5V31Z" fill="black"/>
          </svg>