<svg xmlns="http://www.w3.org/2000/svg">
  <symbol id="html-label" viewBox="0 0 95 15">
    <g opacity="0.5" style="mix-blend-mode:hard-light">
      <path d="M6.25 13.25V11.5H4.5V9.75H2.75V8H1V6.25H2.75V4.5H4.5V2.75H6.25V1H9.75V2.75H8V4.5H6.25V6.25H4.5V8H6.25V9.75H8V11.5H9.75V13.25H6.25ZM25.5 1V2.75H23.75V1H25.5ZM22 2.75H23.75V4.5H22V2.75ZM20.25 4.5H22V6.25H20.25V4.5ZM18.5 6.25H20.25V8H18.5V6.25ZM16.75 8H18.5V9.75H16.75V8ZM15 9.75H16.75V11.5H15V9.75ZM13.25 11.5H15V13.25H13.25V11.5ZM27.25 13.25V1H30.75V6.25H36V1H39.5V13.25H36V8H30.75V13.25H27.25ZM46.5 13.25V2.75H43V1H53.5V2.75H50V13.25H46.5ZM55.25 13.25V1H58.75V2.75H60.5V4.5H62.25V2.75H64V1H67.5V13.25H64V6.25H62.25V9.75H60.5V6.25H58.75V13.25H55.25ZM71 13.25V1H74.5V11.5H81.5V13.25H71ZM85 13.25V11.5H86.75V9.75H88.5V8H90.25V6.25H88.5V4.5H86.75V2.75H85V1H88.5V2.75H90.25V4.5H92V6.25H93.75V8H92V9.75H90.25V11.5H88.5V13.25H85Z" fill="black"/>
    </g>
  </symbol>
</svg>