<svg width="130" height="38" viewBox="0 0 130 38" fill="none" xmlns="http://www.w3.org/2000/svg">
<rect x="1" y="1" width="128" height="36" fill="white"/>
<rect x="1" y="1" width="128" height="36" stroke="black" stroke-width="2"/>
<path d="M38.75 24.75V12.5H42.25V23H49.25V24.75H38.75ZM56.25 14.25V12.5H59.75V14.25H56.25ZM52.75 24.75V23H56.25V17.75H54.5V16H59.75V23H63.25V24.75H52.75ZM65 24.75V12.5H68.5V19.5H72V17.75H73.75V16H77.25V17.75H75.5V19.5H73.75V21.25H75.5V23H77.25V24.75H73.75V23H72V21.25H68.5V24.75H65ZM80.75 24.75V23H79V17.75H80.75V16H89.5V17.75H91.25V21.25H82.5V23H89.5V24.75H80.75ZM82.5 19.5H87.75V17.75H82.5V19.5Z" fill="black"/>
</svg>
