<svg xmlns="http://www.w3.org/2000/svg">
  <symbol id="html-logo" viewBox="0 0 431 57">
    <path d="M24.375 56.875V48.75H16.25V40.625H8.125V32.5H0V24.375H8.125V16.25H16.25V8.125H24.375V0H40.625V8.125H32.5V16.25H24.375V24.375H16.25V32.5H24.375V40.625H32.5V48.75H40.625V56.875H24.375ZM113.75 0V8.125H105.625V0H113.75ZM97.5 8.125H105.625V16.25H97.5V8.125ZM89.375 16.25H97.5V24.375H89.375V16.25ZM81.25 24.375H89.375V32.5H81.25V24.375ZM73.125 32.5H81.25V40.625H73.125V32.5ZM65 40.625H73.125V48.75H65V40.625ZM56.875 48.75H65V56.875H56.875V48.75ZM121.875 56.875V0H138.125V24.375H162.5V0H178.75V56.875H162.5V32.5H138.125V56.875H121.875ZM211.25 56.875V8.125H195V0H243.75V8.125H227.5V56.875H211.25ZM251.875 56.875V0H268.125V8.125H276.25V16.25H284.375V8.125H292.5V0H308.75V56.875H292.5V24.375H284.375V40.625H276.25V24.375H268.125V56.875H251.875ZM325 56.875V0H341.25V48.75H373.75V56.875H325ZM390 56.875V48.75H398.125V40.625H406.25V32.5H414.375V24.375H406.25V16.25H398.125V8.125H390V0H406.25V8.125H414.375V16.25H422.5V24.375H430.625V32.5H422.5V40.625H414.375V48.75H406.25V56.875H390Z" fill="black"/>
  </symbol>
</svg>