<svg xmlns="http://www.w3.org/2000/svg">
  <symbol id="html-subtitle" viewBox="0 0 343 23">
    <path d="M2.875 20.125V17.25H0V14.375H5.75V17.25H14.375V11.5H5.75V8.625H14.375V2.875H5.75V5.75H0V2.875H2.875V0H17.25V2.875H20.125V8.625H17.25V11.5H20.125V17.25H17.25V20.125H2.875ZM23 20.125V5.75H25.875V2.875H28.75V0H37.375V2.875H40.25V5.75H43.125V20.125H37.375V14.375H28.75V20.125H23ZM28.75 11.5H37.375V5.75H34.5V2.875H31.625V5.75H28.75V11.5ZM54.625 5.75H57.5V8.625H60.375V11.5H63.25V17.25H66.125V20.125H60.375V17.25H57.5V11.5H51.75V20.125H46V0H51.75V8.625H54.625V5.75ZM66.125 0V2.875H63.25V5.75H57.5V2.875H60.375V0H66.125ZM69 20.125V0H86.25V2.875H89.125V11.5H86.25V14.375H74.75V20.125H69ZM74.75 11.5H83.375V2.875H74.75V11.5ZM92 20.125V0H97.75V5.75H103.5V20.125H92ZM106.375 20.125V0H112.125V20.125H106.375ZM97.75 17.25H100.625V8.625H97.75V17.25ZM115 20.125V0H132.25V2.875H135.125V8.625H132.25V11.5H135.125V17.25H132.25V20.125H115ZM120.75 8.625H129.375V2.875H120.75V8.625ZM120.75 17.25H129.375V11.5H120.75V17.25ZM138 20.125V5.75H140.875V2.875H143.75V0H152.375V2.875H155.25V5.75H158.125V20.125H152.375V14.375H143.75V20.125H138ZM143.75 11.5H152.375V5.75H149.5V2.875H146.625V5.75H143.75V11.5ZM161 20.125V0H163.875V8.625H166.75V2.875H169.625V0H178.25V2.875H181.125V17.25H178.25V20.125H169.625V17.25H166.75V11.5H163.875V20.125H161ZM172.5 17.25H175.375V2.875H172.5V17.25ZM201.25 23V20.125H184V0H189.75V17.25H192.625V0H195.5V17.25H198.375V0H204.125V17.25H207V23H201.25ZM207 20.125V0H212.75V11.5H215.625V8.625H218.5V5.75H221.375V0H227.125V20.125H221.375V11.5H218.5V14.375H215.625V17.25H212.75V20.125H207ZM232.875 2.875V0H247.25V2.875H232.875ZM230 20.125V5.75H235.75V14.375H238.625V11.5H241.5V8.625H244.375V5.75H250.125V20.125H244.375V14.375H241.5V17.25H238.625V20.125H230ZM284.625 20.125V2.875H278.875V0H296.125V2.875H290.375V20.125H284.625ZM299 20.125V0H319.125V2.875H304.75V8.625H316.25V11.5H304.75V17.25H319.125V20.125H299ZM324.875 20.125V0H342.125V5.75H339.25V2.875H330.625V20.125H324.875Z" fill="black"/>
  </symbol>
</svg>